<svg width="110" height="116" viewBox="0 0 110 116" fill="none" xmlns="http://www.w3.org/2000/svg">
<path fill-rule="evenodd" clip-rule="evenodd" d="M70.414 32.0664C72.1718 30.2656 74.6171 29.1328 77.3359 29.0976C80.0507 29.0624 82.5234 30.1328 84.3242 31.8867C86.125 33.6445 87.2578 36.0898 87.293 38.8086C87.3282 41.5234 86.2578 43.9961 84.5039 45.7969C82.7461 47.5977 80.3008 48.7305 77.582 48.7657C74.8672 48.8008 72.3945 47.7305 70.5937 45.9766C68.7929 44.2188 67.6601 41.7735 67.6249 39.0547C67.5898 36.3399 68.6601 33.8672 70.414 32.0664ZM77.3828 32.9414C75.7305 32.9609 74.2461 33.6523 73.1719 34.75C72.0977 35.8516 71.4453 37.3555 71.4649 39.0078C71.4845 40.6601 72.1759 42.1445 73.2735 43.2187C74.3751 44.2929 75.879 44.9453 77.5313 44.9257C79.1836 44.9061 80.6719 44.2147 81.7422 43.1171C82.8164 42.0155 83.4688 40.5116 83.4492 38.8593C83.4296 37.207 82.7383 35.7226 81.6406 34.6484C80.539 33.5742 79.0351 32.9218 77.3828 32.9414ZM58.6638 24.2578C55.5427 23.125 51.8591 22.4726 48.1248 22.2656C42.7693 21.9687 37.3668 22.5898 33.3948 24.0078C30.2971 25.1133 27.6487 26.6328 25.5354 28.7578C23.4338 30.875 21.8284 33.6328 20.801 37.2422C18.3635 45.7969 18.8987 46.8047 19.3205 47.6092C19.8635 48.6365 20.3205 49.5037 19.5901 52.3865C19.008 54.6795 17.3479 56.7888 15.7737 58.7888C14.2425 60.7341 12.8206 62.5427 13.2151 63.1443H13.2112C13.3518 63.3357 14.1096 63.613 14.844 63.8865C15.5588 64.1521 16.2581 64.4099 16.8831 64.7966L16.8792 64.8005C17.3245 65.0779 17.6565 65.5349 17.7542 66.0935C18.1799 68.4333 17.5823 69.6482 17.0862 70.6599C16.9143 71.0076 16.7893 71.2576 17.8557 72.4411L17.8518 72.445L17.8713 72.4646C18.5706 73.2654 18.4885 74.4763 17.6917 75.1794C17.6252 75.238 17.4924 75.2809 17.5706 75.3825C18.0276 75.9958 18.5315 76.738 18.7151 77.9528C18.8791 79.0309 18.7229 79.9255 18.5549 80.8747C18.4104 81.6872 18.258 82.5583 18.4377 83.4411C18.7502 84.9606 22.5783 84.5895 25.3557 84.3239C26.0159 84.2614 26.0588 84.2497 26.3635 84.2223C29.2932 83.9684 31.2737 84.2184 32.7971 85.3122C34.3518 86.4294 35.133 88.1911 35.6526 90.9411C36.4612 95.2067 36.2151 97.2496 35.4339 100.019C35.4026 100.128 35.4221 100.234 35.4925 100.327C35.5589 100.417 35.6565 100.468 35.7737 100.468H66.6647C66.7819 100.468 66.8835 100.417 66.9499 100.32C67.0163 100.222 67.0358 100.109 66.9928 99.9996C66.8327 99.5465 66.6647 99.0738 66.4928 98.5934H66.4967L66.4928 98.5856C64.1373 91.9801 61.1139 83.5076 63.317 76.6166C64.0944 74.183 65.6725 71.8705 67.192 69.6361C67.9538 68.5189 68.6998 67.4213 69.2662 66.4291C69.8912 65.3314 70.4693 64.2064 71.0006 63.058C71.2702 62.4721 71.528 61.8744 71.7741 61.2689C71.8092 61.1791 71.8092 61.0931 71.7741 61.0033C71.7311 60.8978 71.696 60.7845 71.6725 60.6712H71.6686L70.9459 57.3314C70.9186 57.2104 70.8405 57.1205 70.7272 57.0775C70.5202 56.9994 70.3131 56.9213 70.11 56.8353C69.9108 56.7533 69.7155 56.6713 69.5241 56.5814C69.4108 56.5307 69.2858 56.5424 69.1842 56.6127L66.4576 58.4682C65.6686 59.0072 64.6217 58.8783 63.981 58.2104L63.9732 58.2026L58.274 52.644C57.606 51.9955 57.5123 50.9799 57.9967 50.226L59.8561 47.3432C59.9225 47.2377 59.9303 47.1166 59.8795 47.0072C59.7858 46.8041 59.6959 46.5971 59.61 46.3939C59.528 46.1986 59.4498 46.0033 59.3756 45.8041C59.3287 45.6869 59.235 45.6088 59.1139 45.5854L55.8795 44.9721C54.9303 44.7924 54.274 43.9487 54.3092 43.0112V42.9955L54.2115 35.0619C54.1998 34.1284 54.8561 33.3431 55.7349 33.1596V33.1557L59.0787 32.4331C59.1998 32.4057 59.2897 32.3276 59.3326 32.2104C59.4108 32.0034 59.4889 31.7964 59.5748 31.5932C59.6569 31.394 59.7389 31.1987 59.8287 31.0073C59.8795 30.894 59.8678 30.769 59.7975 30.6675L57.942 27.9409C57.4029 27.1518 57.5318 26.105 58.1998 25.4643C58.2037 25.4603 58.2076 25.4564 58.2076 25.4564L58.8053 24.8432C58.8912 24.7533 58.9225 24.64 58.8951 24.5189C58.8678 24.3978 58.7896 24.308 58.6725 24.265L58.6638 24.2578ZM63.8865 25.125C63.8514 25.164 63.8123 25.207 63.7694 25.2422L61.996 27.0586L63.6913 29.5508C64.1014 30.1289 64.1756 30.9141 63.8202 31.5781C63.5545 32.0703 63.3241 32.5585 63.1249 33.0429C62.9334 33.5116 62.7655 33.9843 62.6209 34.457C62.4608 35.164 61.8983 35.75 61.1443 35.9101L58.0701 36.5741L58.1326 41.4686L61.0388 42.0194C61.7654 42.121 62.3982 42.6288 62.6247 43.3788C62.781 43.8983 62.9646 44.4061 63.1716 44.9022C63.3708 45.3827 63.5857 45.8358 63.8162 46.2655C64.1951 46.8749 64.2146 47.6757 63.8005 48.3241L62.0896 50.9764L65.5935 54.3944L68.0857 52.6991C68.6638 52.2889 69.449 52.2147 70.113 52.5702C70.6052 52.8358 71.0935 53.0663 71.5778 53.2655C72.0427 53.4569 72.527 53.6288 73.027 53.7772C73.7184 53.9491 74.2887 54.5038 74.445 55.246L75.1091 58.3202L80.0036 58.2577L80.5544 55.3515C80.6559 54.625 81.1637 53.9921 81.9138 53.7656C82.4333 53.6094 82.945 53.4258 83.4372 53.2187C83.9176 53.0195 84.3708 52.8047 84.8005 52.5742C85.4098 52.1953 86.2107 52.1758 86.8591 52.5898L89.5114 54.3007L92.9294 50.7968L91.2341 48.3046C90.8239 47.7265 90.7497 46.9413 91.1052 46.2773C91.3708 45.7851 91.6012 45.2969 91.8005 44.8125C91.9919 44.3438 92.1598 43.8711 92.3044 43.3984C92.4645 42.6914 93.027 42.1054 93.781 41.9453L96.8552 41.2813L96.7927 36.3868L93.8865 35.836C93.1599 35.7344 92.5271 35.2266 92.3006 34.4766C92.1443 33.9571 91.9607 33.4454 91.7537 32.9532C91.5545 32.4727 91.3396 32.0196 91.1092 31.5899C90.7303 30.9805 90.7107 30.1797 91.1248 29.5313L92.8357 26.879L89.3318 23.461L86.8396 25.1563C86.2615 25.5665 85.4763 25.6407 84.8123 25.2852C84.3201 25.0196 83.8318 24.7891 83.3475 24.5899C82.8787 24.3985 82.4061 24.2305 81.9334 24.086C81.2264 23.9258 80.6404 23.3633 80.4803 22.6094L79.8162 19.5352L74.9217 19.5977L74.371 22.5C74.2694 23.2265 73.7616 23.8594 73.0116 24.0859C72.492 24.2421 71.9804 24.4257 71.4882 24.6328C71.0077 24.832 70.5546 25.0468 70.1249 25.2773C69.5155 25.6562 68.7147 25.6757 68.0663 25.2617L65.414 23.5508L63.8867 25.1172L63.8865 25.125Z" fill="#00ABFA"/>
</svg>
