<svg width="100" height="104" viewBox="0 0 100 104" fill="none" xmlns="http://www.w3.org/2000/svg">
<path d="M48.6278 18.8183C49.5328 18.6087 50.4774 18.6087 51.3824 18.8183L62.2174 21.3269C64.7246 21.9074 66.6743 24.0609 66.6743 26.7372V34.7911C66.6743 41.8334 62.5109 48.2124 55.9909 51.4831L54.9881 51.9863C51.8523 53.5593 48.1579 53.5593 45.0221 51.9863L44.0193 51.4831C37.4993 48.2124 33.3359 41.8334 33.3359 34.7911V26.7372C33.3359 24.0609 35.2856 21.9074 37.7928 21.3269L48.6278 18.8183Z" fill="#00ABFA"/>
<path d="M22.8594 38.665C23.4672 38.665 24.0546 38.7525 24.6096 38.9157V61.348C24.6096 61.8329 24.7681 62.3044 25.061 62.6908L28.7282 67.5281C29.4698 68.5063 30.8639 68.6981 31.8421 67.9566C32.8203 67.215 33.0121 65.8208 32.2705 64.8427L29.0547 60.6008C29.0548 58.2662 30.3234 55.8384 32.6568 55.9151C34.4059 55.9727 36.1259 56.7152 37.3845 58.1068L44.9831 66.5086C45.3527 66.9172 45.5573 67.4485 45.5573 67.9995V83.1161C45.5573 84.3436 44.5622 85.3386 43.3347 85.3386H25.6098C24.8819 85.3386 24.2001 84.9821 23.7847 84.3844L17.0615 74.7098C16.8027 74.3374 16.6641 73.8948 16.6641 73.4414V44.8603C16.6641 41.4387 19.4378 38.665 22.8594 38.665Z" fill="#00ABFA"/>
<path d="M75.393 38.9157C75.948 38.7525 76.5354 38.665 77.1432 38.665C80.5648 38.665 83.3385 41.4387 83.3385 44.8603V73.4414C83.3385 73.8948 83.1998 74.3374 82.9411 74.7098L76.2179 84.3844C75.8025 84.9821 75.1206 85.3386 74.3927 85.3386H56.6679C55.4404 85.3386 54.4453 84.3436 54.4453 83.1161V67.9995C54.4453 67.4485 54.6499 66.9172 55.0195 66.5086L62.6181 58.1068C63.8767 56.7152 65.5966 55.9727 67.3458 55.9151C69.6791 55.8384 70.9478 58.2662 70.9479 60.6008L67.7321 64.8427C66.9905 65.8208 67.1823 67.215 68.1605 67.9566C69.1387 68.6981 70.5328 68.5063 71.2744 67.5281L74.9416 62.6908C75.2344 62.3044 75.393 61.8329 75.393 61.348V38.9157Z" fill="#00ABFA"/>
</svg>
