<svg width="100" height="104" viewBox="0 0 100 104" fill="none" xmlns="http://www.w3.org/2000/svg">
<path d="M61.6186 14.8285C56.0372 14.7981 50.601 16.6065 46.15 19.9741C41.6989 23.3418 38.4806 28.0814 36.9922 33.4608C39.3651 33.3406 41.744 33.5044 44.078 33.9487C44.7982 34.1114 45.4952 34.274 46.1921 34.4599C47.0053 34.6689 47.8184 34.9013 48.5852 35.1801C50.0506 35.692 51.4724 36.3213 52.8366 37.0619C53.7154 37.5521 54.5684 38.0871 55.3922 38.665C55.8802 38.9901 56.368 39.3387 56.8326 39.7103C58.1762 40.7294 59.4278 41.8644 60.573 43.1023C61.5547 44.1784 62.4629 45.3194 63.2913 46.5175C63.517 46.8398 63.7264 47.1732 63.9186 47.5165C66.9879 52.3239 68.6089 57.913 68.5883 63.6166C68.5883 64.0812 68.5883 64.5459 68.5418 65.0105C74.484 63.3354 79.6196 59.567 83.0003 54.401C86.3809 49.235 87.7784 43.0203 86.9346 36.9044C86.0908 30.7885 83.0628 25.1844 78.4097 21.1268C73.7565 17.0691 67.7924 14.832 61.6186 14.8285Z" fill="#00ABFA" fill-opacity="0.2"/>
<path d="M42.4903 38.4094C40.3967 38.044 38.2639 37.9581 36.1478 38.154C36.1285 38.3392 36.1208 38.5254 36.1246 38.7116C36.0781 39.2691 36.0549 39.8267 36.0549 40.3843C36.0409 43.9041 36.7692 47.3872 38.1923 50.6066L42.4903 38.4094Z" fill="#00ABFA"/>
<path d="M41.2812 55.833C42.3141 57.2441 43.5157 58.5236 44.8591 59.6431L51.2479 41.5451C49.9152 40.7337 48.4973 40.0714 47.0197 39.5703L41.2812 55.833Z" fill="#00ABFA"/>
<path d="M58.7481 48.2132C57.7033 46.8051 56.5031 45.5192 55.1702 44.3799L48.7812 62.478C50.1229 63.2788 51.5391 63.9479 53.0097 64.4759L58.7481 48.2132Z" fill="#00ABFA"/>
<path d="M57.5312 65.5912C58.8817 65.8245 60.2498 65.9411 61.6203 65.9398C62.1778 65.9398 62.7354 65.9165 63.3162 65.87C63.4788 65.87 63.6415 65.8467 63.8274 65.8467C63.897 65.0802 63.9202 64.3367 63.9202 63.6164C63.9259 60.1224 63.206 56.6652 61.8061 53.4639L57.5312 65.5912Z" fill="#00ABFA"/>
<path d="M61.6084 70.5866C59.7142 70.5827 57.8243 70.4038 55.963 70.0522C55.266 69.9128 54.569 69.7734 53.872 69.5877C53.0589 69.3785 52.2457 69.123 51.4558 68.8442C49.9952 68.3296 48.5807 67.6923 47.2275 66.9391C46.3571 66.4726 45.5119 65.9608 44.6952 65.4057C44.1841 65.0573 43.6962 64.7088 43.2083 64.3371C41.8645 63.3268 40.6128 62.1995 39.4678 60.9684C38.4805 59.8889 37.5721 58.7398 36.7496 57.53C36.5174 57.2047 36.3082 56.8794 36.0991 56.531C33.0134 51.7126 31.3839 46.1061 31.4062 40.3845C31.4062 39.9198 31.4062 39.4552 31.4295 39.0137C27.1402 40.226 23.2424 42.5388 20.123 45.7228C17.0036 48.9067 14.771 52.851 13.6467 57.1642C12.5225 61.4775 12.5457 66.0097 13.714 70.3113C14.8823 74.6128 17.1552 78.534 20.307 81.6859C23.4588 84.8377 27.3801 87.1105 31.6816 88.2789C35.9831 89.4472 40.5154 89.4704 44.8286 88.3461C49.1419 87.2219 53.0862 84.9893 56.2701 81.8699C59.454 78.7505 61.7669 74.8527 62.9792 70.5634C62.5377 70.5866 62.0963 70.5866 61.6549 70.5866H61.6084Z" fill="#00ABFA"/>
</svg>
