<svg width="100" height="104" viewBox="0 0 100 104" fill="none" xmlns="http://www.w3.org/2000/svg">
<path fill-rule="evenodd" clip-rule="evenodd" d="M50.5278 84.4778C50.359 84.5516 50.1777 84.588 49.9973 84.588C49.8169 84.588 49.6365 84.5516 49.4677 84.4778C16.267 70.0942 21.853 30.8214 21.9143 30.4269C22.0068 29.8182 22.5044 29.3525 23.1176 29.3001C38.0592 28.0258 49.0091 18.5599 49.1175 18.4648C49.6205 18.0241 50.3741 18.0241 50.8779 18.4648C50.9863 18.5599 61.9362 28.0258 76.877 29.3001C77.4911 29.3525 77.9878 29.8182 78.0811 30.4269C78.1416 30.8214 83.7276 70.0942 50.5278 84.4778ZM84.6029 24.8595C66.7242 22.9969 53.4746 13.2405 49.9973 10.4404C46.52 13.2405 33.2712 22.9969 15.3926 24.8595C15.0309 28.1777 14.1894 39.1196 17.0481 51.5189C21.5518 71.0548 32.6341 84.859 49.9973 92.56C67.3605 84.859 78.4437 71.0548 82.9465 51.5189C85.8052 39.1196 84.9646 28.1777 84.6029 24.8595Z" fill="#00ABFA"/>
<path fill-rule="evenodd" clip-rule="evenodd" d="M58.9305 42.0874L48.0811 52.7156C47.563 53.2221 46.7365 53.2239 46.2185 52.7191L41.5735 48.203C41.0385 47.6832 40.3445 47.4246 39.6505 47.4246C38.9298 47.4246 38.2109 47.7027 37.6697 48.259C36.6095 49.3503 36.6344 51.1018 37.7257 52.161L45.2356 59.4595C46.2744 60.4708 48.0562 60.4645 49.0914 59.4524L62.7935 46.0294C63.3195 45.5122 63.6146 44.8235 63.6217 44.0859C63.6297 43.3492 63.3497 42.6543 62.8343 42.1274C61.7688 41.0405 60.0182 41.0237 58.9305 42.0874Z" fill="#00ABFA"/>
<path fill-rule="evenodd" clip-rule="evenodd" d="M64.6662 47.9335L50.9642 61.3556C49.944 62.3553 48.595 62.9063 47.167 62.9063C45.7469 62.9063 44.4033 62.3607 43.3858 61.3716L35.8759 54.0732C33.7298 51.9884 33.6809 48.5458 35.7657 46.4006C37.8522 44.2554 41.2948 44.2083 43.4382 46.2904L47.1519 49.901L57.0718 40.1819C59.2099 38.0891 62.6516 38.1247 64.7453 40.261C65.7592 41.2962 66.3102 42.6639 66.2951 44.1132C66.28 45.5626 65.7015 46.9187 64.6662 47.9335ZM50.0018 21.1924C47.103 23.4869 37.4115 30.4148 24.4355 31.8491C23.8374 37.9185 22.1783 69.3419 50.0018 81.798C77.8608 69.3267 76.1741 37.9167 75.5699 31.8491C62.5939 30.4148 52.9005 23.4869 50.0018 21.1924Z" fill="#00ABFA"/>
</svg>
