<svg width="128" height="128" viewBox="0 0 128 128" fill="none" xmlns="http://www.w3.org/2000/svg">
<path d="M64.1206 10.3555C64.308 10.5334 64.484 10.7301 64.6485 10.9456C65.8996 12.5871 67.0016 14.6833 68.0705 16.5508C71.6475 22.8008 75.9775 30.6704 76.0286 38.9445C76.0566 43.4644 74.3609 46.9794 72.2681 50.2776C67.4595 57.8564 59.3875 65.0645 53.2631 70.6218C44.6214 78.4635 35.7217 85.8691 27.4473 94.427C19.8938 102.24 13.0434 111.446 6.42539 120.661C5.30273 122.201 1.83032 127.655 0.54736 127.978C0.296243 128.041 0.198628 127.963 0 127.77C0.00151048 127.723 0.00132206 127.675 0.00453183 127.628C0.0600419 126.816 7.54881 112.627 8.6035 110.667L40.1718 53.2093C46.0154 42.4336 51.5872 31.3416 57.5949 20.7354C59.2323 17.8446 62.1303 12.5133 64.1206 10.3555Z" fill="url(#paint0_linear_1033_1025)"/>
<path d="M95.1275 0.0642122L105.258 0.112733C107.294 0.0997068 109.351 -0.079739 111.383 0.0423311C111.357 0.425841 111.317 0.537189 111.156 0.854981C110.231 2.6739 109.092 4.35816 108.085 6.10108C106.513 8.82024 105.008 11.6186 103.493 14.3964L72.6465 72.0454L67.3704 81.9574C66.2715 84.0078 65.0603 86.0523 64.1046 88.228C64.299 88.6316 64.7601 88.6313 65.0915 88.669C66.999 88.8862 68.9991 88.7711 70.9166 88.8002C80.2067 88.9412 98.0639 87.8593 106.131 92.101C106.355 92.2201 106.577 92.347 106.797 92.4818C107.017 92.6166 107.234 92.759 107.448 92.9092C107.662 93.0593 107.873 93.217 108.081 93.3823C108.289 93.5475 108.494 93.7199 108.696 93.8995C108.897 94.0794 109.095 94.2662 109.289 94.46C109.483 94.6538 109.674 94.8544 109.86 95.0616C110.046 95.2689 110.229 95.4827 110.407 95.703C110.585 95.9232 110.759 96.1496 110.928 96.3821C111.965 97.7966 113.04 99.2957 113.954 100.854C114.8 102.298 115.565 103.858 116.381 105.338C118.921 109.883 121.394 114.493 123.8 119.17L126.592 124.524C127.027 125.362 127.553 126.217 127.9 127.122C127.984 127.341 128.001 127.479 128.001 127.722C126.187 127.913 124.309 127.682 122.491 127.635C119.306 127.567 116.12 127.522 112.935 127.499L74.097 127.217L24.1362 127.521C18.3405 127.556 12.5308 127.818 6.73828 127.731C7.95233 125.708 9.42127 123.882 10.7913 122.052C12.1632 120.22 13.5013 118.344 14.8616 116.497C20.5395 108.787 26.2801 100.937 32.5388 94.0876C36.7842 89.4416 41.377 85.3055 45.9141 81.2068C51.9975 75.7114 58.1512 70.3981 64.1569 64.7373C68.8507 60.3134 73.5579 55.6548 77.7465 50.3612C81.3461 45.8121 85.9816 39.5991 86.1355 32.4929C86.3341 23.3236 80.6487 13.3005 76.3544 6.9007C75.2185 5.20761 73.9627 3.67695 72.8023 2.01738C75.9571 0.301033 82.5218 0.377295 86.062 0.274521C89.0832 0.151649 92.1051 0.081546 95.1275 0.0642122Z" fill="url(#paint1_linear_1033_1025)"/>
<defs>
<linearGradient id="paint0_linear_1033_1025" x1="29.3752" y1="66.5093" x2="57.9044" y2="80.1899" gradientUnits="userSpaceOnUse">
<stop stop-color="#0092EF"/>
<stop offset="1" stop-color="#00B4FF"/>
</linearGradient>
<linearGradient id="paint1_linear_1033_1025" x1="120.361" y1="7.82523" x2="16.7878" y2="135.072" gradientUnits="userSpaceOnUse">
<stop stop-color="#0093F0"/>
<stop offset="1" stop-color="#00AFFC"/>
</linearGradient>
</defs>
</svg>
